<svg width="41" height="40" viewBox="0 0 41 40" fill="none" xmlns="http://www.w3.org/2000/svg">
<rect x="0.125" width="40" height="40" rx="20" fill="#4C40F7"/>
<path d="M20.1247 16.918C19.3071 16.918 18.523 17.2427 17.9449 17.8209C17.3668 18.399 17.042 19.1831 17.042 20.0006C17.042 20.8182 17.3668 21.6023 17.9449 22.1804C18.523 22.7585 19.3071 23.0833 20.1247 23.0833C20.9422 23.0833 21.7263 22.7585 22.3044 22.1804C22.8825 21.6023 23.2073 20.8182 23.2073 20.0006C23.2073 19.1831 22.8825 18.399 22.3044 17.8209C21.7263 17.2427 20.9422 16.918 20.1247 16.918ZM20.1247 22.0026C19.5935 22.0026 19.0841 21.7916 18.7086 21.4161C18.333 21.0405 18.122 20.5311 18.122 20C18.122 19.4688 18.333 18.9594 18.7086 18.5839C19.0841 18.2083 19.5935 17.9973 20.1247 17.9973C20.6558 17.9973 21.1652 18.2083 21.5408 18.5839C21.9163 18.9594 22.1273 19.4688 22.1273 20C22.1273 20.5311 21.9163 21.0405 21.5408 21.4161C21.1652 21.7916 20.6558 22.0026 20.1247 22.0026Z" fill="white"/>
<path d="M23.329 17.5233C23.7259 17.5233 24.0477 17.2015 24.0477 16.8046C24.0477 16.4077 23.7259 16.0859 23.329 16.0859C22.9321 16.0859 22.6104 16.4077 22.6104 16.8046C22.6104 17.2015 22.9321 17.5233 23.329 17.5233Z" fill="white"/>
<path d="M25.8133 16.0741C25.659 15.6755 25.4231 15.3136 25.1209 15.0115C24.8186 14.7093 24.4566 14.4736 24.058 14.3194C23.5915 14.1443 23.0988 14.0496 22.6006 14.0394C21.9586 14.0114 21.7553 14.0034 20.1273 14.0034C18.4993 14.0034 18.2906 14.0034 17.654 14.0394C17.1562 14.0491 16.6638 14.1438 16.198 14.3194C15.7993 14.4734 15.4372 14.7091 15.1349 15.0112C14.8326 15.3134 14.5968 15.6754 14.4426 16.0741C14.2675 16.5405 14.1731 17.0333 14.1633 17.5314C14.1346 18.1728 14.126 18.3761 14.126 20.0048C14.126 21.6328 14.126 21.8401 14.1633 22.4781C14.1733 22.9768 14.2673 23.4688 14.4426 23.9361C14.5972 24.3346 14.8332 24.6965 15.1356 24.9986C15.438 25.3007 15.8 25.5365 16.1986 25.6908C16.6636 25.8729 17.1562 25.9743 17.6553 25.9908C18.2973 26.0188 18.5006 26.0274 20.1286 26.0274C21.7566 26.0274 21.9653 26.0274 22.602 25.9908C23.1 25.9806 23.5928 25.8862 24.0593 25.7114C24.4578 25.5569 24.8197 25.321 25.122 25.0187C25.4242 24.7165 25.6601 24.3546 25.8146 23.9561C25.99 23.4894 26.084 22.9974 26.094 22.4988C26.1226 21.8574 26.1313 21.6541 26.1313 20.0254C26.1313 18.3968 26.1313 18.1901 26.094 17.5521C26.0862 17.0469 25.9913 16.5469 25.8133 16.0741ZM25.0013 22.4288C24.997 22.813 24.9269 23.1936 24.794 23.5541C24.6939 23.8133 24.5406 24.0488 24.344 24.2452C24.1475 24.4417 23.9119 24.5948 23.6526 24.6948C23.2961 24.827 22.9195 24.8972 22.5393 24.9021C21.906 24.9314 21.7273 24.9388 20.1033 24.9388C18.478 24.9388 18.312 24.9388 17.6666 24.9021C17.2866 24.8974 16.9102 24.8273 16.554 24.6948C16.2938 24.5954 16.0573 24.4425 15.8599 24.2461C15.6625 24.0496 15.5085 23.8138 15.408 23.5541C15.2769 23.1975 15.2069 22.8213 15.2006 22.4414C15.172 21.8081 15.1653 21.6294 15.1653 20.0054C15.1653 18.3808 15.1653 18.2148 15.2006 17.5688C15.205 17.1848 15.2751 16.8044 15.408 16.4441C15.6113 15.9181 16.028 15.5041 16.554 15.3028C16.9104 15.1708 17.2867 15.1007 17.6666 15.0954C18.3006 15.0668 18.4786 15.0588 20.1033 15.0588C21.728 15.0588 21.8946 15.0588 22.5393 15.0954C22.9196 15.1 23.2962 15.1701 23.6526 15.3028C23.9119 15.4029 24.1474 15.5562 24.344 15.7528C24.5405 15.9493 24.6938 16.1848 24.794 16.4441C24.925 16.8007 24.9951 17.1769 25.0013 17.5568C25.03 18.1908 25.0373 18.3688 25.0373 19.9934C25.0373 21.6174 25.0373 21.7921 25.0086 22.4294H25.0013V22.4288Z" fill="white"/>
</svg>
