<svg width="41" height="40" viewBox="0 0 41 40" fill="none" xmlns="http://www.w3.org/2000/svg">
<rect x="1.375" y="1" width="38" height="38" rx="19" stroke="#4C40F7" stroke-width="2"/>
<path d="M15.6969 16.7979C16.5025 16.7979 17.1556 16.1449 17.1556 15.3393C17.1556 14.5337 16.5025 13.8806 15.6969 13.8806C14.8913 13.8806 14.2383 14.5337 14.2383 15.3393C14.2383 16.1449 14.8913 16.7979 15.6969 16.7979Z" fill="#4C40F7"/>
<path d="M18.5331 17.9034V25.996H21.0458V21.994C21.0458 20.938 21.2445 19.9154 22.5538 19.9154C23.8451 19.9154 23.8611 21.1227 23.8611 22.0607V25.9967H26.3751V21.5587C26.3751 19.3787 25.9058 17.7034 23.3578 17.7034C22.1345 17.7034 21.3145 18.3747 20.9791 19.01H20.9451V17.9034H18.5331ZM14.4385 17.9034H16.9551V25.996H14.4385V17.9034Z" fill="#4C40F7"/>
</svg>
