<svg width="41" height="40" viewBox="0 0 41 40" fill="none" xmlns="http://www.w3.org/2000/svg">
<rect x="1.625" y="1" width="38" height="38" rx="19" stroke="#4C40F7" stroke-width="2"/>
<path d="M25.7133 17.3314C25.722 17.4481 25.722 17.5641 25.722 17.6801C25.722 21.2301 23.02 25.3208 18.082 25.3208C16.5607 25.3208 15.1473 24.8801 13.958 24.1148C14.174 24.1394 14.382 24.1481 14.6067 24.1481C15.8153 24.151 16.9898 23.7469 17.9407 23.0008C17.3803 22.9906 16.8371 22.8057 16.3868 22.4719C15.9366 22.1381 15.6019 21.672 15.4293 21.1388C15.5953 21.1634 15.762 21.1801 15.9367 21.1801C16.1773 21.1801 16.4193 21.1468 16.644 21.0888C16.0358 20.966 15.489 20.6363 15.0964 20.1559C14.7039 19.6755 14.4898 19.0739 14.4907 18.4534V18.4201C14.8487 18.6194 15.264 18.7441 15.704 18.7608C15.3354 18.5158 15.0332 18.1835 14.8242 17.7933C14.6153 17.4031 14.5062 16.9673 14.5067 16.5248C14.5067 16.0261 14.6393 15.5688 14.872 15.1701C15.5468 16.0001 16.3883 16.6792 17.3422 17.1632C18.2961 17.6473 19.341 17.9256 20.4093 17.9801C20.368 17.7801 20.3427 17.5728 20.3427 17.3648C20.3425 17.0121 20.4118 16.6628 20.5467 16.3369C20.6816 16.0111 20.8794 15.715 21.1288 15.4656C21.3782 15.2162 21.6743 15.0184 22.0002 14.8835C22.326 14.7486 22.6753 14.6793 23.028 14.6794C23.8013 14.6794 24.4993 15.0034 24.99 15.5274C25.5912 15.4112 26.1677 15.1917 26.694 14.8788C26.4936 15.4993 26.0738 16.0255 25.5133 16.3588C26.0465 16.298 26.5676 16.1577 27.0593 15.9428C26.6921 16.4782 26.237 16.9477 25.7133 17.3314Z" fill="#4C40F7"/>
</svg>
